<svg xmlns="http://www.w3.org/2000/svg" viewBox="0 0 64 64" role="img" aria-labelledby="title desc">
  <title id="title">Bouwbeveiliging Nederland logo</title>
  <desc id="desc">Modern schildlogo met bouwkraan en beveiligingsaccent in navy en oranje.</desc>

  <defs>
    <linearGradient id="shieldGradient" x1="0" y1="0" x2="1" y2="1">
      <stop offset="0%" stop-color="#1a2340"/>
      <stop offset="100%" stop-color="#0a0e1a"/>
    </linearGradient>
    <linearGradient id="accentGradient" x1="0" y1="0" x2="1" y2="1">
      <stop offset="0%" stop-color="#fb923c"/>
      <stop offset="100%" stop-color="#ea580c"/>
    </linearGradient>
  </defs>

  <path d="M32 4 54 13v17c0 13-8.4 22.3-22 29C18.4 52.3 10 43 10 30V13z" fill="url(#shieldGradient)"/>
  <path d="M32 7.5 51 15v15c0 11.3-7.2 19.5-19 25.3C20.2 49.5 13 41.3 13 30V15z" fill="none" stroke="#334571" stroke-width="1.5"/>

  <circle cx="32" cy="32" r="16" fill="#0f172a" stroke="#334571" stroke-width="1.2"/>

  <path d="M24 40h16v2H24z" fill="url(#accentGradient)"/>
  <path d="M30 22h4v18h-4z" fill="#e2e8f0"/>
  <path d="M30 22h12v3H30z" fill="#e2e8f0"/>
  <path d="M42 22h2v9h-2z" fill="#e2e8f0"/>
  <circle cx="43" cy="32.5" r="2.2" fill="url(#accentGradient)"/>

  <path d="M20 47c3.5-2.2 7.2-3.2 12-3.2S40.5 44.8 44 47" fill="none" stroke="#fb923c" stroke-width="1.7" stroke-linecap="round" opacity="0.95"/>
</svg>
